<svg xmlns:xlink="http://www.w3.org/1999/xlink"  xmlns="http://www.w3.org/2000/svg" width="144" height="144" viewBox="0 0 144 144" fill="none">
  <path class="dark-red" d="M13.9842 57.676C11.9865 55.5363 9.14704 54.4462 5.54704 54.4462C5.20225 54.4462 4.92339 54.1673 4.92339 53.8225C4.92339 53.4777 5.20225 53.1989 5.54704 53.1989C9.15211 53.1989 11.9915 52.1138 13.9893 49.969C15.1352 48.7369 15.9769 47.3882 15.9769 45.6541V26.9037C15.9769 26.3256 15.4394 25.8592 14.7803 25.8592H1.20676C0.547605 25.8592 0.0101471 26.3256 0.0101471 26.9037V80.711C0.0101471 81.289 0.547605 81.7555 1.20676 81.7555H14.7803C15.4394 81.7555 15.9769 81.289 15.9769 80.711V61.9656C15.9769 61.5752 15.9769 61.1645 15.9009 60.769C15.8248 60.3634 15.6423 60.0237 15.4394 59.6687C15.0338 58.9589 14.547 58.2794 13.9842 57.676Z"/>
  <path class="light-red" d="M83.8445 55.5668V80.7211C83.8445 81.2991 84.382 81.7656 85.0411 81.7656H98.6147C99.2738 81.7656 99.8113 81.2991 99.8113 80.7211V54.7859L83.8445 55.5668Z"/>
  <path class="light-red" d="M29.5808 54.4766C26.3611 54.6287 23.7854 55.7037 21.9448 57.6761C21.382 58.2794 20.9003 58.9538 20.4947 59.6738C20.2969 60.0237 20.1093 60.3685 20.0282 60.769C19.9521 61.1645 19.9622 61.5803 19.9622 61.9758V80.7211C19.9622 81.2992 20.4997 81.7657 21.1589 81.7657H34.7324C35.3916 81.7657 35.929 81.2992 35.929 80.7211V56.5403C34.2456 55.293 32.1211 54.5932 29.5808 54.4766Z"/>
  <path class="light-red" d="M79.8541 51.6625V26.8124C79.8541 26.2952 79.4079 25.8744 78.8552 25.8744H64.8812C64.3285 25.8744 63.8823 26.2952 63.8823 26.8124V50.8817L79.8541 51.6625Z"/>
  <path class="light-red-2" d="M84.0828 32.3138C83.9256 32.1211 83.8445 31.8879 83.8445 31.6394V51.8552L101.809 52.7324L84.0828 32.3138Z"/>
  <path class="light-red" d="M63.8823 56.5403V56.591C63.8265 56.5859 63.7758 56.5707 63.72 56.5707C63.5071 56.5707 63.3093 56.6214 63.1166 56.6924L79.6107 75.311C79.7679 75.5036 79.849 75.7369 79.849 75.9853V55.7594L63.8823 56.5403Z"/>
  <path class="light-red" d="M20.2056 32.3138C20.0485 32.1211 19.9673 31.8879 19.9673 31.6394V45.6541C19.9673 46.4147 20.0282 46.942 20.3273 47.6468C20.7025 48.5189 21.3059 49.2795 21.9499 49.969C23.7854 51.9414 26.3611 53.0164 29.6011 53.1685C32.3392 53.0417 34.6056 52.2355 36.3549 50.7854L20.2056 32.3138Z"/>
  <path class="dark-red" d="M79.6107 75.3161L36.2789 26.4017C36.0659 26.0721 35.6654 25.8693 35.2344 25.8693H21.1437C20.4896 25.8693 19.9623 26.3611 19.9623 26.9645V31.6394C19.9623 31.8828 20.0485 32.1211 20.2006 32.3138L62.9595 81.2282C63.1724 81.5578 63.573 81.7606 64.004 81.7606H78.6676C79.3217 81.7606 79.849 81.2688 79.849 80.6654V75.9905C79.8541 75.742 79.7679 75.5037 79.6107 75.3161Z"/>
  <path class="dark-red" d="M143.493 75.3161L100.161 26.4017C99.9482 26.0721 99.5476 25.8693 99.1167 25.8693H85.0259C84.3719 25.8693 83.8445 26.3611 83.8445 26.9645V31.6394C83.8445 31.8828 83.9307 32.1211 84.0829 32.3138L126.548 81.2282C126.761 81.5578 127.161 81.7606 127.592 81.7606H142.55C143.204 81.7606 143.731 81.2688 143.731 80.6654V75.9905C143.731 75.742 143.645 75.5037 143.493 75.3161Z"/>
  <path class="text" d="M11.089 91.8659H0V117.897H10.6885C13.8524 117.897 16.5144 117.101 18.6085 115.53C21.5138 113.309 23.1161 109.587 23.1161 105.044C23.1161 101.145 21.9702 97.8338 19.8 95.4659C17.6451 93.1082 14.6282 91.8659 11.089 91.8659ZM16.5448 105.044C16.5448 109.856 14.3594 112.396 10.222 112.396H6.50536V97.3268H10.293C14.2073 97.3268 16.5448 100.212 16.5448 105.044Z"/>
  <path class="text" d="M33.5054 91.8659H27.0051V117.897H33.5054V91.8659Z"/>
  <path class="text" d="M51.1859 108.685H56.0383V108.705C55.8 110.87 53.9594 113.197 50.4761 113.197C46.6073 113.197 44.0062 109.891 44.0062 104.973C44.0062 102.57 44.5589 100.541 45.5983 99.0963C46.7087 97.56 48.3566 96.7487 50.3645 96.7487C52.9352 96.7487 54.8417 98.1532 55.3487 100.41L55.3589 100.445H61.6766L61.6665 100.389C61.2456 97.6462 60.0135 95.3747 58.0969 93.818C56.0789 92.1803 53.4017 91.3487 50.1414 91.3487C46.5414 91.3487 43.4586 92.5454 41.2377 94.8068C38.7532 97.2964 37.3893 100.901 37.3893 104.963C37.3893 109.024 38.596 112.315 40.8777 114.825C43.0682 117.208 46.1358 118.47 49.7459 118.47C53.0975 118.47 55.511 117.259 57.1183 114.769L57.4783 117.847V117.887H62.062V103.863H51.1808V108.685H51.1859Z"/>
  <path class="text" d="M73.0698 91.8659H66.5695V117.897H73.0698V91.8659Z"/>
  <path class="text" d="M98.4474 91.8659H76.8169V97.4028H84.3414V117.897H90.8468V97.4028H98.4474V91.8659Z"/>
  <path class="text" d="M112.928 91.8659H106.271L96.9566 117.832L96.9313 117.897H103.477L104.963 113.217H113.943L115.454 117.862L115.464 117.897H122.299L112.939 91.8964L112.928 91.8659ZM112.432 108.517H106.484L108.456 102.306C108.857 101.074 109.415 98.9899 109.496 98.6806C109.577 98.995 110.099 101.074 110.5 102.306L112.432 108.517Z"/>
  <path class="text" d="M132.115 112.361V91.8659H125.61V117.897H143.731V112.361H132.115Z"/>
  <style>
    .text{fill:#1f2855}@media (prefers-color-scheme:dark){.text{fill:#fff}}
    .dark-red{fill:#FF1800}@media (prefers-color-scheme:dark){.dark-red{fill:#fff}}
    .light-red{fill:#FF1800}@media (prefers-color-scheme:dark){.light-red{fill:#E0E0E0}}
    .light-red-2{fill:#C91A00}@media (prefers-color-scheme:dark){.light-red{fill:#E0E0E0}}
  </style>
</svg>