<svg xmlns:xlink="http://www.w3.org/1999/xlink"  xmlns="http://www.w3.org/2000/svg" width="32" height="32" viewBox="0 0 32 32" fill="none">
<g clip-path="url(#clip0_1180_37682)">
<path d="M32 0H0V32H32V0Z" fill="#06264D"/>
<path d="M6.72584 18.6976C6.41864 18.6144 6.11144 18.5664 5.81064 18.5664H5.80424C5.76904 18.5664 5.73704 18.56 5.70504 18.5504C5.70184 18.5504 5.69864 18.5472 5.69544 18.544C5.68904 18.544 5.68584 18.5408 5.68264 18.5376C5.66664 18.5312 5.65384 18.5216 5.64104 18.5152C5.62504 18.5056 5.60904 18.4896 5.59624 18.48C5.59304 18.48 5.58984 18.4768 5.58984 18.4736V25.696H10.233V23.1136C10.233 21.0656 8.87304 19.2416 6.88904 18.7328C6.83464 18.72 6.78024 18.7072 6.72584 18.6944V18.6976Z" fill="white"/>
<path d="M5.58594 18.0285C5.61794 17.9965 5.65954 17.9773 5.70114 17.9613C6.09154 17.9517 6.46914 17.9005 6.83394 17.8109C8.84034 17.3117 10.2291 15.4845 10.2291 13.4173V6.30371H5.58594V18.0285Z" fill="white"/>
<path d="M16.4548 17.9735H20.6884V17.9863L26.3684 11.1319H20.8612L16.4484 17.0583V6.37988H11.9844V13.4327C11.9844 15.5447 13.434 17.4039 15.498 17.8551C15.8084 17.9223 16.1284 17.9639 16.4548 17.9735Z" fill="white"/>
<path d="M20.4068 18.5557H16.4868C16.4708 18.5589 16.4516 18.5621 16.4324 18.5621C16.426 18.5621 16.4228 18.5653 16.4164 18.5653H16.4036C16.1348 18.5653 15.8628 18.6037 15.5908 18.6709C15.5716 18.6741 15.5524 18.6773 15.5332 18.6837C15.53 18.6837 15.5236 18.6837 15.5204 18.6869C15.466 18.6997 15.4116 18.7125 15.3572 18.7253C13.3604 19.2213 11.9844 21.0549 11.9844 23.1125V25.6981H16.4484V19.5893L20.8868 25.6981H26.4196L20.41 18.5557H20.4068Z" fill="white"/>
</g>
<defs>
<clipPath id="clip0_1180_37682">
<rect width="32" height="32" rx="4" fill="white"/>
</clipPath>
</defs>
</svg>